<svg width="20.512695" height="17.135742" viewBox="0 0 20.5127 17.1357" fill="none" xmlns="http://www.w3.org/2000/svg" xmlns:xlink="http://www.w3.org/1999/xlink">
	<desc>
			Created with Pixso.
	</desc>
	<defs/>
	<path id="tSvg39d5e67e91" d="M1.75 7.43C7.04 5.12 10.57 3.6 12.33 2.87C17.37 0.77 18.42 0.41 19.11 0.4C19.25 0.39 19.59 0.43 19.81 0.61C19.99 0.76 20.04 0.96 20.07 1.1C20.09 1.24 20.12 1.56 20.1 1.81C19.82 4.68 18.64 11.65 18.04 14.86C17.79 16.22 17.29 16.68 16.8 16.72C15.75 16.82 14.95 16.03 13.93 15.36C12.33 14.31 11.43 13.66 9.88 12.64C8.08 11.46 9.25 10.81 10.27 9.75C10.53 9.47 15.18 5.24 15.27 4.86C15.28 4.81 15.29 4.63 15.18 4.54C15.08 4.45 14.92 4.48 14.81 4.5C14.65 4.54 12.1 6.23 7.15 9.56C6.43 10.06 5.77 10.3 5.18 10.29C4.54 10.28 3.29 9.92 2.36 9.62C1.23 9.25 0.32 9.06 0.4 8.43C0.44 8.1 0.89 7.77 1.75 7.43Z" fill="#FFFFFF" fill-opacity="1.000000" fill-rule="evenodd"/>
	<path id="tSvg39d5e67e91" d="M12.33 2.87C17.37 0.77 18.42 0.41 19.11 0.4C19.25 0.39 19.59 0.43 19.81 0.61C19.99 0.76 20.04 0.96 20.07 1.1C20.09 1.24 20.12 1.56 20.1 1.81C19.82 4.68 18.64 11.65 18.04 14.86C17.79 16.22 17.29 16.68 16.8 16.72C15.75 16.82 14.95 16.03 13.93 15.36C12.33 14.31 11.43 13.66 9.88 12.64C8.08 11.46 9.25 10.81 10.27 9.75C10.53 9.47 15.18 5.24 15.27 4.86C15.28 4.81 15.29 4.63 15.18 4.54C15.08 4.45 14.92 4.48 14.81 4.5C14.65 4.54 12.1 6.23 7.15 9.56C6.43 10.06 5.77 10.3 5.18 10.29C4.54 10.28 3.29 9.92 2.36 9.62C1.23 9.25 0.32 9.06 0.4 8.43C0.44 8.1 0.89 7.77 1.75 7.43C7.04 5.12 10.57 3.6 12.33 2.87Z" stroke="#FFFFFF" stroke-opacity="1.000000" stroke-width="0.802916"/>
</svg>
