<svg width="25.090820" height="23.000000" viewBox="0 0 25.0908 23" fill="none" xmlns="http://www.w3.org/2000/svg" xmlns:xlink="http://www.w3.org/1999/xlink">
	<desc>
			Created with Pixso.
	</desc>
	<defs>
		<clipPath id="clip53_260">
			<rect id="WA.svg" rx="-1.045455" width="23.000000" height="20.909090" transform="translate(1.045455 1.045455)" fill="white" fill-opacity="0"/>
		</clipPath>
	</defs>
	<g clip-path="url(#clip53_260)">
		<path id="Vector" d="M0.95 22.97L2.54 17.2C1.56 15.51 1.04 13.59 1.05 11.63C1.05 5.48 6.07 0.49 12.24 0.49C15.24 0.49 18.05 1.65 20.16 3.75C22.27 5.86 23.44 8.66 23.43 11.63C23.43 17.78 18.41 22.77 12.24 22.77L12.23 22.77C10.36 22.77 8.51 22.3 6.88 21.42L0.95 22.97ZM7.16 19.4L7.5 19.61C8.93 20.45 10.57 20.89 12.24 20.9L12.24 20.9C17.37 20.9 21.54 16.75 21.54 11.64C21.54 9.16 20.58 6.84 18.82 5.09C17.07 3.34 14.73 2.37 12.24 2.37C7.11 2.37 2.94 6.52 2.94 11.63C2.94 13.38 3.42 15.08 4.36 16.55L4.58 16.91L3.64 20.32L7.16 19.4Z" fill="#FFFFFF" fill-opacity="1.000000" fill-rule="nonzero"/>
		<path id="Vector" d="M9.44 6.97C9.23 6.5 9.01 6.49 8.82 6.49C8.66 6.48 8.47 6.48 8.28 6.48C8.09 6.48 7.79 6.55 7.53 6.83C7.28 7.11 6.56 7.78 6.56 9.16C6.56 10.52 7.56 11.85 7.7 12.04C7.84 12.22 9.64 15.12 12.48 16.24C14.84 17.17 15.32 16.98 15.83 16.93C16.34 16.89 17.49 16.26 17.72 15.61C17.95 14.96 17.95 14.4 17.88 14.28C17.81 14.17 17.63 14.1 17.35 13.96C17.07 13.82 15.69 13.15 15.44 13.05C15.18 12.96 14.99 12.91 14.81 13.19C14.62 13.47 14.08 14.09 13.92 14.28C13.76 14.47 13.59 14.49 13.31 14.35C13.04 14.21 12.13 13.92 11.07 12.96C10.23 12.23 9.67 11.31 9.51 11.04C9.35 10.76 9.49 10.61 9.63 10.47C9.75 10.35 9.91 10.14 10.05 9.98C10.19 9.82 10.24 9.7 10.33 9.52C10.42 9.33 10.38 9.17 10.31 9.03C10.24 8.9 9.69 7.52 9.44 6.97Z" fill="#FFFFFF" fill-opacity="1.000000" fill-rule="evenodd"/>
	</g>
</svg>
