<svg width="178.000977" height="47.449219" viewBox="0 0 178.001 47.4492" fill="none" xmlns="http://www.w3.org/2000/svg" xmlns:xlink="http://www.w3.org/1999/xlink">
	<desc>
			Created with Pixso.
	</desc>
	<defs/>
	<path id="Vector" d="M6 21.56L0 21.56L0 0L6 0L6 21.56Z" fill="#1A5874" fill-opacity="1.000000" fill-rule="nonzero"/>
	<path id="Vector" d="M15.08 21.56L9.08 21.56L9.08 7.7L15.08 7.7L15.08 21.56Z" fill="#1A5874" fill-opacity="1.000000" fill-rule="nonzero"/>
	<path id="Vector" d="M33.55 21.56L27.55 21.56L27.55 13.86C27.55 12.93 26.94 12.32 26.01 12.32C24.93 12.32 24.16 13.08 24.16 14.47L24.16 21.56L18.16 21.56L18.16 7.7L23.86 7.7L23.86 9.54L23.39 10.47L23.7 10.47C23.7 10.47 25.09 7.39 28.47 7.39C31.4 7.39 33.55 9.54 33.55 12.62L33.55 21.56Z" fill="#1A5874" fill-opacity="1.000000" fill-rule="nonzero"/>
	<path id="Vector" d="M46.64 19.86L46.95 18.94L46.8 18.94C46.83 18.97 45.41 21.56 42.02 21.56C38.79 21.56 36.02 19.09 36.02 14.63C36.02 10.47 38.79 7.7 42.33 7.7C45.72 7.7 47.1 10.62 47.1 10.62L47.26 10.62L46.95 9.7L46.95 8L51.11 8L51.11 20.63C51.11 24.94 48.33 27.72 43.41 27.72C40.02 27.72 37.87 26.48 37.87 26.48L37.87 23.1L38.64 23.1C38.64 23.1 40.33 24.33 42.79 24.33C45.26 24.33 46.64 22.94 46.64 20.63L46.64 19.86ZM43.72 11.24C42.02 11.24 40.64 12.62 40.64 14.63C40.64 16.63 42.02 18.01 43.72 18.01C45.41 18.01 46.8 16.63 46.8 14.63C46.8 12.62 45.41 11.24 43.72 11.24Z" fill="#1A5874" fill-opacity="1.000000" fill-rule="nonzero"/>
	<path id="Vector" d="M54.65 15.39L54.65 8L59.11 8L59.11 15.39C59.11 16.94 60.19 18.01 61.58 18.01C62.96 18.01 64.04 16.94 64.04 15.39L64.04 8L68.5 8L68.5 15.39C68.5 19.4 66.04 21.86 61.58 21.86C57.11 21.86 54.65 19.4 54.65 15.39Z" fill="#1A5874" fill-opacity="1.000000" fill-rule="nonzero"/>
	<path id="Vector" d="M70.97 18.01C70.97 15.4 72.82 13.55 76.51 13.55L79.9 13.55C79.9 11.85 79.13 11.08 77.28 11.08C75.28 11.08 73.89 11.85 73.89 11.85L73.12 11.85L72.35 8.77C72.35 8.77 74.51 7.7 77.89 7.7C82.05 7.7 84.36 10 84.36 13.86L84.36 21.56L80.2 21.56L80.2 19.86L80.51 18.94L80.36 18.94C80.36 18.94 78.97 21.86 75.59 21.86C72.66 21.86 70.97 20.17 70.97 18.01ZM77.12 16.01C76.05 16.01 75.43 16.63 75.43 17.4C75.43 18.17 76.05 18.78 77.28 18.78C78.66 18.78 79.9 17.55 79.9 16.01L77.12 16.01Z" fill="#1A5874" fill-opacity="1.000000" fill-rule="nonzero"/>
	<path id="Vector" d="M109.3 13.08L109.3 21.56L106.68 21.56L106.68 13.55C106.68 11.7 105.6 10.62 103.76 10.62C101.6 10.62 100.06 12.16 100.06 14.32L100.06 21.56L97.45 21.56L97.45 13.55C97.45 11.7 96.37 10.62 94.52 10.62C92.37 10.62 90.83 12.16 90.83 14.32L90.83 21.56L88.21 21.56L88.21 8.62L90.67 8.62L90.67 10.16L90.37 11.08L90.52 11.08C90.52 11.08 92.06 8.31 95.14 8.31C98.83 8.31 99.6 11.08 99.6 11.08L99.75 11.08C99.75 11.08 101.3 8.31 104.37 8.31C107.45 8.31 109.3 10.16 109.3 13.08Z" fill="#1A5874" fill-opacity="1.000000" fill-rule="nonzero"/>
	<path id="Vector" d="M112.53 18.01C112.53 15.55 114.07 14.01 117.61 14.01L122.08 14.01C122.08 11.7 121 10.62 118.54 10.62C116.38 10.62 114.84 11.24 114.84 11.24L114.38 11.24L113.92 9.08C113.92 9.08 115.77 8.31 118.85 8.31C122.85 8.31 124.7 10.16 124.7 14.01L124.7 21.56L122.23 21.56L122.23 20.02L122.54 19.09L122.39 19.09C122.39 19.09 120.85 21.86 117.31 21.86C114.23 21.86 112.53 20.17 112.53 18.01ZM117.61 15.86C115.92 15.86 115.15 16.63 115.15 17.71C115.15 18.78 116.07 19.71 117.92 19.71C120.39 19.71 122.08 18.01 122.08 15.86L117.61 15.86Z" fill="#1A5874" fill-opacity="1.000000" fill-rule="nonzero"/>
	<path id="Vector" d="M135.94 17.86C135.94 15.4 128.24 16.94 128.24 12.01C128.24 10 129.93 8.31 133.32 8.31C136.24 8.31 138.09 8.93 138.09 8.93L137.78 11.24L137.32 11.24C137.32 11.24 136.09 10.62 133.78 10.62C131.47 10.62 130.86 11.24 130.86 12.01C130.86 14.47 138.55 12.93 138.55 17.86C138.55 20.02 136.71 21.86 133.01 21.86C129.93 21.86 128.24 21.09 128.24 21.09L128.24 18.63L128.7 18.63C128.7 18.63 130.39 19.55 133.01 19.55C135.17 19.55 135.94 18.78 135.94 17.86Z" fill="#1A5874" fill-opacity="1.000000" fill-rule="nonzero"/>
	<path id="Vector" d="M145.48 16.94C145.48 19.25 146.56 20.32 148.41 20.32C149.79 20.32 150.72 19.71 150.72 19.71L151.02 19.71L151.02 21.25C151.02 21.25 149.94 21.86 148.25 21.86C145.33 21.86 143.79 20.32 143.79 16.94L143.79 10.47L140.86 10.47L140.86 8.77L143.79 8.77L143.79 4L145.48 4L145.48 8.77L150.72 8.77L150.72 10.47L145.48 10.47L145.48 16.94Z" fill="#1A5874" fill-opacity="1.000000" fill-rule="nonzero"/>
	<path id="Vector" d="M166.6 15.86L155.37 15.86C155.67 18.48 157.67 20.32 160.75 20.32C163.68 20.32 165.37 18.94 165.37 18.94L165.68 18.94L165.68 20.63C165.68 20.63 163.89 21.86 160.6 21.86C156.44 21.86 153.67 19.09 153.67 15.09C153.67 11.08 156.44 8.31 160.14 8.31C163.83 8.31 166.6 11.08 166.6 15.24L166.6 15.86ZM155.37 14.47L164.91 14.47C164.6 11.7 162.75 9.85 160.14 9.85C157.52 9.85 155.67 11.7 155.37 14.47Z" fill="#1A5874" fill-opacity="1.000000" fill-rule="nonzero"/>
	<path id="Vector" d="M171.99 11.54C171.99 11.54 172.98 8.62 176.3 8.62L178 8.62L178 10.31L176.3 10.31C173.84 10.31 172.15 12.01 172.15 14.78L172.15 21.56L170.45 21.56L170.45 8.62L171.99 8.62L171.99 10.31L171.84 11.54L171.99 11.54Z" fill="#1A5874" fill-opacity="1.000000" fill-rule="nonzero"/>
	<path id="Vector" d="M12 6.16C10 6.16 8.77 4.92 8.77 3.23C8.77 1.54 10 0.3 12.16 0.3C14.16 0.3 15.39 1.54 15.39 3.23C15.39 4.92 14.16 6.16 12 6.16Z" fill="#DC3F33" fill-opacity="1.000000" fill-rule="nonzero"/>
	<path id="Link → +7 (999) 360-30-03" d="M2.39 43.38Q3.4 44.2 5.07 44.2Q6.41 44.2 7.34 43.68Q7.88 43.39 8.27 42.95Q8.55 42.64 8.75 42.26Q9.23 41.35 9.23 40.13Q9.23 39 8.76 38.13C8.46 37.55 8.03 37.09 7.45 36.77Q6.6 36.28 5.42 36.28Q4.33 36.28 3.51 36.74Q3.49 36.75 3.48 36.76Q3.05 37 2.73 37.35Q2.43 37.66 2.24 38.07C2.31 37.33 2.46 36.73 2.68 36.26Q2.92 35.75 3.3 35.38Q3.44 35.23 3.61 35.11C4.01 34.81 4.5 34.56 5.08 34.37L8.52 33.33L8.44 32.12L4.91 33.19C4.26 33.38 3.68 33.63 3.18 33.92C2.68 34.21 2.26 34.59 1.92 35.06Q1.4 35.75 1.15 36.82Q0.89 37.88 0.89 39.43Q0.89 41.7 1.95 42.95Q2.15 43.19 2.39 43.38ZM16.69 43.72C17.25 44.04 17.9 44.2 18.64 44.2C19.46 44.2 20.18 44.01 20.78 43.64Q21.22 43.38 21.56 43.02Q21.94 42.62 22.21 42.1C22.55 41.45 22.72 40.71 22.72 39.88C22.72 39.07 22.55 38.34 22.22 37.68Q21.95 37.15 21.55 36.73Q21.22 36.39 20.82 36.13C20.21 35.74 19.48 35.54 18.64 35.54C17.92 35.54 17.28 35.7 16.72 36C16.15 36.31 15.7 36.75 15.34 37.32Q14.83 38.15 14.7 39.25L13.15 39.25L13.15 35.68L11.74 35.68L11.74 44.04L13.15 44.04L13.15 40.48L14.7 40.48Q14.81 41.48 15.26 42.28Q15.29 42.34 15.33 42.4C15.67 42.96 16.12 43.4 16.69 43.72ZM28.34 43.92Q28.97 44.2 29.73 44.2Q30.51 44.2 31.17 43.91Q31.43 43.79 31.68 43.62C32.24 43.23 32.68 42.7 32.99 42.04C33.31 41.38 33.47 40.65 33.47 39.86Q33.47 39.28 33.33 38.73Q33.26 38.49 33.17 38.24Q32.94 37.64 32.57 37.13Q32.47 36.99 32.35 36.85Q32.07 36.53 31.74 36.28Q31.44 36.06 31.1 35.89C30.62 35.66 30.1 35.54 29.52 35.54Q29.01 35.54 28.54 35.68Q28.14 35.8 27.78 36.02C27.24 36.33 26.81 36.74 26.48 37.25L26.48 35.68L25.23 35.68L25.23 47.44L26.64 47.44L26.64 42.39C26.95 42.91 27.37 43.34 27.9 43.68Q28.12 43.82 28.34 43.92ZM37.94 43.86C38.45 44.08 39.02 44.2 39.65 44.2Q40.59 44.2 41.36 43.86C41.88 43.63 42.33 43.31 42.7 42.92C43.08 42.51 43.37 42.05 43.57 41.52C43.77 41 43.87 40.45 43.87 39.88C43.87 39.29 43.77 38.74 43.57 38.21C43.37 37.69 43.07 37.23 42.69 36.84C42.31 36.43 41.87 36.12 41.36 35.89Q40.59 35.54 39.65 35.54Q38.79 35.54 38.06 35.84Q38 35.87 37.94 35.89C37.42 36.12 36.98 36.43 36.61 36.84C36.23 37.23 35.95 37.69 35.74 38.21Q35.69 38.34 35.65 38.48Q35.44 39.15 35.44 39.88Q35.44 40.48 35.59 41.05Q35.65 41.29 35.74 41.52C35.95 42.05 36.23 42.51 36.61 42.92C36.98 43.31 37.42 43.63 37.94 43.86ZM63.18 43.86C63.7 44.08 64.28 44.2 64.91 44.2Q65.76 44.2 66.48 43.92Q67.21 43.65 67.74 43.17C68.1 42.85 68.37 42.49 68.56 42.08L67.34 41.75C67.17 42.16 66.85 42.5 66.4 42.76C65.95 43.01 65.47 43.14 64.96 43.14C64.48 43.14 64.03 43.02 63.61 42.79C63.2 42.54 62.85 42.21 62.59 41.8C62.33 41.37 62.18 40.88 62.14 40.34L69.07 40.34C69.08 40.29 69.08 40.21 69.08 40.12C69.09 40.01 69.1 39.9 69.1 39.8C69.1 39.05 68.92 38.36 68.57 37.72C68.23 37.07 67.75 36.54 67.12 36.15C66.5 35.74 65.77 35.54 64.92 35.54C64.09 35.54 63.35 35.74 62.7 36.13C62.06 36.53 61.56 37.05 61.2 37.7C60.83 38.35 60.65 39.07 60.65 39.86Q60.65 40.59 60.86 41.26Q60.9 41.39 60.96 41.52C61.17 42.05 61.46 42.51 61.84 42.92C62.22 43.31 62.67 43.63 63.18 43.86ZM74.58 43.92Q75.21 44.2 75.96 44.2Q76.75 44.2 77.4 43.91Q77.67 43.79 77.91 43.62C78.48 43.23 78.92 42.7 79.23 42.04C79.55 41.38 79.71 40.65 79.71 39.86Q79.71 39.28 79.56 38.73Q79.5 38.49 79.4 38.24C79.21 37.72 78.94 37.26 78.59 36.85Q78.31 36.53 77.97 36.28Q77.68 36.06 77.34 35.89Q77.24 35.84 77.13 35.8Q76.5 35.54 75.75 35.54C75.12 35.54 74.54 35.7 74.01 36.02Q73.57 36.28 73.22 36.63Q72.94 36.91 72.71 37.25L72.71 35.68L71.47 35.68L71.47 47.44L72.87 47.44L72.87 42.39C73.18 42.91 73.6 43.34 74.14 43.68Q74.35 43.82 74.58 43.92ZM84.2 43.86C84.72 44.08 85.3 44.2 85.93 44.2Q86.78 44.2 87.5 43.92C87.99 43.74 88.41 43.49 88.76 43.17C89.12 42.85 89.4 42.49 89.58 42.08L88.36 41.75C88.19 42.16 87.88 42.5 87.42 42.76C86.97 43.01 86.49 43.14 85.98 43.14Q85.6 43.14 85.26 43.05Q84.93 42.96 84.63 42.79C84.22 42.54 83.88 42.21 83.61 41.8C83.35 41.37 83.2 40.88 83.16 40.34L90.09 40.34C90.1 40.29 90.11 40.21 90.11 40.12C90.12 40.01 90.12 39.9 90.12 39.8C90.12 39.05 89.95 38.36 89.59 37.72C89.25 37.07 88.77 36.54 88.14 36.15Q88.03 36.08 87.91 36.01Q87.06 35.54 85.95 35.54Q84.95 35.54 84.12 35.92Q83.92 36.01 83.72 36.13C83.08 36.53 82.58 37.05 82.22 37.7Q82.07 37.97 81.96 38.25Q81.67 39 81.67 39.86Q81.67 40.59 81.88 41.26Q81.93 41.39 81.98 41.52Q82.2 42.07 82.53 42.52Q82.68 42.73 82.86 42.92C83.24 43.31 83.69 43.63 84.2 43.86ZM103.93 43.86C104.44 44.08 105.01 44.2 105.64 44.2C106.27 44.2 106.84 44.08 107.35 43.86Q108.01 43.56 108.52 43.09Q108.61 43.01 108.69 42.92Q108.91 42.69 109.08 42.43Q109.37 42.01 109.56 41.52Q109.65 41.29 109.71 41.05Q109.86 40.48 109.86 39.88Q109.86 39.15 109.65 38.48Q109.61 38.34 109.56 38.21Q109.37 37.73 109.08 37.33Q108.9 37.07 108.68 36.84Q108.45 36.58 108.18 36.38Q107.8 36.09 107.35 35.89C106.84 35.66 106.27 35.54 105.64 35.54C105.02 35.54 104.45 35.66 103.93 35.89Q103.48 36.09 103.1 36.38Q102.83 36.58 102.6 36.84Q102.44 37.01 102.3 37.2Q101.95 37.66 101.73 38.21Q101.68 38.34 101.64 38.48Q101.43 39.15 101.43 39.88Q101.43 40.48 101.58 41.05Q101.64 41.29 101.73 41.52Q101.92 42.01 102.21 42.43Q102.39 42.69 102.6 42.92Q102.74 43.07 102.9 43.2Q103.35 43.6 103.93 43.86ZM124.56 43.86C125.07 44.08 125.64 44.2 126.27 44.2C126.9 44.2 127.47 44.08 127.98 43.86C128.5 43.63 128.95 43.31 129.33 42.92C129.7 42.51 129.99 42.05 130.19 41.52Q130.28 41.29 130.35 41.05Q130.49 40.48 130.49 39.88Q130.49 39.15 130.28 38.48Q130.24 38.34 130.19 38.21Q130 37.73 129.72 37.33Q129.53 37.07 129.31 36.84C128.94 36.43 128.49 36.12 127.98 35.89C127.47 35.66 126.9 35.54 126.27 35.54C125.65 35.54 125.08 35.66 124.56 35.89Q124.11 36.09 123.73 36.38Q123.46 36.58 123.23 36.84Q123.07 37.01 122.93 37.2Q122.58 37.66 122.37 38.21Q122.31 38.34 122.27 38.48Q122.06 39.15 122.06 39.88Q122.06 40.48 122.21 41.05Q122.27 41.29 122.37 41.52Q122.56 42.01 122.84 42.43Q123.02 42.69 123.23 42.92Q123.37 43.07 123.53 43.2Q123.98 43.6 124.56 43.86ZM51.21 35.68L51.21 44.04L52.62 44.04L52.62 36.93L56.73 36.93L56.73 44.04L58.14 44.04L58.14 35.68L51.21 35.68ZM92.47 35.68L92.47 44.04L96.71 44.04C97.24 44.04 97.71 43.95 98.12 43.78C98.52 43.6 98.84 43.34 99.06 43.01C99.29 42.68 99.4 42.28 99.4 41.81C99.4 41.29 99.25 40.85 98.95 40.5C98.65 40.14 98.26 39.89 97.78 39.75Q98.22 39.56 98.5 39.23Q98.62 39.1 98.71 38.95Q98.8 38.8 98.86 38.64Q99.03 38.22 99.03 37.73C99.03 37.38 98.95 37.05 98.78 36.74C98.62 36.43 98.37 36.18 98.04 35.99C97.71 35.79 97.29 35.68 96.79 35.68L92.47 35.68ZM111.44 42.79L111.44 46L112.69 46L112.69 44.04L119.01 44.04L119.01 46L120.26 46L120.26 42.79L119.12 42.79L119.12 35.68L113.44 35.68L113.36 38.1C113.33 39.04 113.27 39.81 113.17 40.42Q113.02 41.33 112.79 41.86C112.64 42.2 112.46 42.44 112.26 42.58C112.07 42.72 111.85 42.79 111.62 42.79L111.44 42.79ZM132.98 35.68L132.98 44.04L137.22 44.04C137.76 44.04 138.23 43.95 138.63 43.78C139.04 43.6 139.35 43.34 139.58 43.01C139.8 42.68 139.91 42.28 139.91 41.81C139.91 41.29 139.76 40.85 139.46 40.5C139.17 40.14 138.78 39.89 138.3 39.75C138.7 39.57 139.01 39.3 139.22 38.95C139.44 38.59 139.54 38.18 139.54 37.73C139.54 37.38 139.46 37.05 139.29 36.74C139.13 36.43 138.88 36.18 138.55 35.99C138.22 35.79 137.81 35.68 137.3 35.68L132.98 35.68ZM67.79 39.36L62.09 39.36Q62.15 38.57 62.52 37.95Q62.53 37.94 62.54 37.92C62.81 37.51 63.15 37.18 63.56 36.95Q63.81 36.81 64.08 36.73Q64.48 36.6 64.92 36.6C65.43 36.6 65.88 36.71 66.3 36.95C66.72 37.18 67.06 37.51 67.32 37.92C67.59 38.34 67.75 38.82 67.79 39.36ZM88.81 39.36L83.11 39.36C83.16 38.82 83.31 38.34 83.56 37.92C83.83 37.51 84.17 37.18 84.59 36.95C85 36.71 85.46 36.6 85.95 36.6C86.45 36.6 86.91 36.71 87.32 36.95C87.74 37.18 88.08 37.51 88.35 37.92C88.61 38.34 88.77 38.82 88.81 39.36ZM96.42 39.36L93.82 39.36L93.82 36.68L96.47 36.68C96.83 36.68 97.13 36.8 97.35 37.06Q97.52 37.24 97.61 37.46Q97.7 37.7 97.7 37.97C97.7 38.21 97.65 38.43 97.54 38.64C97.44 38.86 97.29 39.03 97.1 39.17C96.9 39.3 96.68 39.36 96.42 39.36ZM136.94 39.36L134.33 39.36L134.33 36.68L136.98 36.68Q137.31 36.68 137.56 36.81Q137.73 36.9 137.86 37.06C138.1 37.32 138.22 37.62 138.22 37.97C138.22 38.21 138.16 38.43 138.06 38.64C137.95 38.86 137.8 39.03 137.61 39.17C137.42 39.3 137.19 39.36 136.94 39.36ZM20.02 42.58C19.62 42.85 19.16 42.98 18.64 42.98C18.15 42.98 17.71 42.86 17.31 42.61C16.93 42.36 16.62 41.99 16.4 41.52C16.19 41.06 16.08 40.51 16.08 39.88Q16.08 38.95 16.4 38.24C16.61 37.78 16.91 37.41 17.3 37.16Q17.5 37.02 17.73 36.92Q18.15 36.76 18.64 36.76Q19.16 36.76 19.61 36.94Q19.8 37.02 19.98 37.14C20.39 37.4 20.7 37.76 20.93 38.23C21.16 38.69 21.28 39.24 21.28 39.88Q21.28 40.79 20.94 41.49C20.72 41.95 20.41 42.31 20.02 42.58ZM30.42 42.72C30.08 42.9 29.71 42.98 29.3 42.98C28.92 42.98 28.56 42.9 28.21 42.72C27.86 42.54 27.55 42.3 27.28 42Q27.04 41.73 26.85 41.43Q26.73 41.23 26.64 41.01L26.64 38.63Q26.65 38.58 26.66 38.53Q26.75 38.2 26.98 37.91Q27.23 37.57 27.6 37.32C27.84 37.14 28.1 37 28.37 36.9C28.64 36.8 28.91 36.76 29.17 36.76C29.57 36.76 29.95 36.84 30.29 37.01C30.64 37.17 30.94 37.4 31.2 37.68C31.47 37.97 31.67 38.3 31.81 38.68C31.96 39.05 32.03 39.44 32.03 39.86Q32.03 40.16 31.98 40.44Q31.94 40.73 31.84 41.01C31.71 41.39 31.52 41.72 31.28 42.02C31.04 42.31 30.76 42.54 30.42 42.72ZM37.25 41.46C37 40.99 36.88 40.47 36.88 39.89C36.88 39.31 37 38.78 37.25 38.31C37.5 37.84 37.84 37.47 38.26 37.19Q38.55 36.99 38.87 36.88Q39.24 36.76 39.65 36.76C40.16 36.76 40.62 36.9 41.04 37.17C41.47 37.45 41.8 37.82 42.05 38.29C42.3 38.76 42.43 39.28 42.43 39.86C42.43 40.44 42.3 40.96 42.05 41.44C41.8 41.91 41.47 42.29 41.04 42.56C40.62 42.84 40.16 42.98 39.65 42.98Q39.18 42.98 38.76 42.83Q38.5 42.74 38.26 42.58C37.84 42.3 37.5 41.93 37.25 41.46ZM76.65 42.72C76.32 42.9 75.95 42.98 75.53 42.98C75.16 42.98 74.79 42.9 74.44 42.72C74.09 42.54 73.78 42.3 73.51 42Q73.27 41.73 73.09 41.43Q72.97 41.23 72.87 41.01L72.87 38.63Q72.88 38.58 72.9 38.53Q72.99 38.2 73.21 37.91Q73.47 37.57 73.83 37.32C74.08 37.14 74.33 37 74.6 36.9C74.88 36.8 75.15 36.76 75.4 36.76C75.81 36.76 76.18 36.84 76.52 37.01Q76.8 37.14 77.03 37.31Q77.25 37.48 77.43 37.68C77.7 37.97 77.9 38.3 78.04 38.68C78.19 39.05 78.27 39.44 78.27 39.86C78.27 40.26 78.2 40.64 78.07 41.01C77.95 41.39 77.76 41.72 77.51 42.02C77.28 42.31 76.99 42.54 76.65 42.72ZM103.24 41.46C102.99 40.99 102.87 40.47 102.87 39.89C102.87 39.31 102.99 38.78 103.24 38.31Q103.54 37.75 103.99 37.38Q104.11 37.28 104.25 37.19C104.66 36.9 105.13 36.76 105.64 36.76C106.15 36.76 106.61 36.9 107.03 37.17Q107.25 37.32 107.44 37.49Q107.8 37.83 108.04 38.29C108.29 38.76 108.42 39.28 108.42 39.86C108.42 40.44 108.29 40.96 108.04 41.44Q107.8 41.91 107.44 42.24Q107.25 42.42 107.03 42.56C106.61 42.84 106.15 42.98 105.64 42.98C105.13 42.98 104.66 42.85 104.25 42.58C103.83 42.3 103.49 41.93 103.24 41.46ZM123.87 41.46C123.62 40.99 123.5 40.47 123.5 39.89C123.5 39.31 123.62 38.78 123.87 38.31Q124.17 37.75 124.62 37.38Q124.75 37.28 124.88 37.19C125.29 36.9 125.76 36.76 126.27 36.76C126.78 36.76 127.25 36.9 127.66 37.17Q127.88 37.32 128.07 37.49Q128.43 37.83 128.67 38.29C128.93 38.76 129.05 39.28 129.05 39.86C129.05 40.44 128.93 40.96 128.67 41.44Q128.43 41.91 128.07 42.24Q127.88 42.42 127.66 42.56C127.25 42.84 126.78 42.98 126.27 42.98C125.76 42.98 125.29 42.85 124.88 42.58C124.46 42.3 124.13 41.93 123.87 41.46ZM117.71 42.79L113.59 42.79C113.79 42.61 113.96 42.34 114.1 41.97C114.25 41.61 114.36 41.12 114.45 40.52C114.54 39.9 114.61 39.14 114.64 38.23L114.69 36.93L117.71 36.93L117.71 42.79ZM6.82 42.45Q6.15 42.98 5.07 42.98Q4.19 42.98 3.58 42.63C3.17 42.38 2.86 42.05 2.65 41.64Q2.35 41 2.35 40.2Q2.35 39.3 2.7 38.69Q2.95 38.27 3.31 37.99Q3.48 37.85 3.68 37.75Q3.74 37.72 3.8 37.69Q4.38 37.43 5.07 37.43Q6.16 37.43 6.83 37.96Q6.96 38.07 7.08 38.2Q7.22 38.35 7.33 38.52Q7.79 39.21 7.79 40.2Q7.79 41.23 7.3 41.94Q7.2 42.09 7.07 42.23Q6.95 42.35 6.82 42.45ZM96.68 43.04L93.82 43.04L93.82 40.29L96.73 40.29C96.98 40.29 97.21 40.36 97.4 40.48C97.6 40.6 97.76 40.77 97.86 40.98C97.98 41.18 98.04 41.41 98.04 41.67C98.04 41.9 97.98 42.13 97.86 42.34C97.75 42.55 97.58 42.72 97.37 42.85Q97.28 42.91 97.18 42.95Q96.95 43.04 96.68 43.04ZM137.19 43.04L134.33 43.04L134.33 40.29L137.24 40.29Q137.55 40.29 137.79 40.42Q137.85 40.45 137.91 40.48C138.11 40.6 138.27 40.77 138.38 40.98C138.49 41.18 138.55 41.41 138.55 41.67Q138.55 41.79 138.53 41.91Q138.49 42.13 138.38 42.34Q138.3 42.48 138.2 42.59Q138.07 42.74 137.88 42.85C137.68 42.98 137.45 43.04 137.19 43.04Z" fill="#195874" fill-opacity="1.000000" fill-rule="evenodd"/>
</svg>
