<svg width="17.500000" height="17.500000" viewBox="0 0 17.5 17.5" fill="none" xmlns="http://www.w3.org/2000/svg" xmlns:xlink="http://www.w3.org/1999/xlink">
	<desc>
			Created with Pixso.
	</desc>
	<defs/>
	<path id="Vector" d="M16.25 7.5L10 7.5L10 1.25C10 0.55 9.44 0 8.75 0C8.05 0 7.5 0.55 7.5 1.25L7.5 7.5L1.25 7.5C0.55 7.5 0 8.05 0 8.75C0 9.44 0.55 10 1.25 10L7.5 10L7.5 16.25C7.5 16.94 8.05 17.5 8.75 17.5C9.44 17.5 10 16.94 10 16.25L10 10L16.25 10C16.94 10 17.5 9.44 17.5 8.75C17.5 8.05 16.94 7.5 16.25 7.5Z" fill="#27A8C4" fill-opacity="1.000000" fill-rule="nonzero"/>
</svg>
